<?xml version="1.0" encoding="utf-8"?>
<!-- Generator: Adobe Illustrator 20.0.0, SVG Export Plug-In . SVG Version: 6.00 Build 0)  -->
<!DOCTYPE svg PUBLIC "-//W3C//DTD SVG 1.0//EN" "http://www.w3.org/TR/2001/REC-SVG-20010904/DTD/svg10.dtd">
<svg version="1.0" id="Calque_1" xmlns="http://www.w3.org/2000/svg" xmlns:xlink="http://www.w3.org/1999/xlink" x="0px" y="0px"
	 viewBox="0 0 23 8.8" enable-background="new 0 0 23 8.8" xml:space="preserve">
<g>
	<path fill="#000000" d="M3.8,8.8C2.8,8.8,1.9,8,1.9,6.9S2.8,5,3.8,5c1.1,0,1.9,0.9,1.9,1.9S4.9,8.8,3.8,8.8z M3.8,6.1
		c-0.4,0-0.8,0.3-0.8,0.8s0.3,0.8,0.8,0.8c0.4,0,0.8-0.3,0.8-0.8S4.2,6.1,3.8,6.1z"/>
</g>
<g>
	<path fill="#000000" d="M18.8,8.8c-1.1,0-1.9-0.9-1.9-1.9S17.8,5,18.8,5s1.9,0.9,1.9,1.9S19.9,8.8,18.8,8.8z M18.8,6.1
		c-0.4,0-0.8,0.3-0.8,0.8s0.3,0.8,0.8,0.8s0.8-0.3,0.8-0.8S19.3,6.1,18.8,6.1z"/>
</g>
<g>
	<path fill="#000000" d="M22.4,8.1H22c-0.3,0-0.6-0.3-0.6-0.6c0-0.2,0.1-0.4,0.3-0.5l-0.2-1.3c-0.7-1.5-3.3-2.2-4.2-2.3
		c-0.1,0-0.2,0-0.2-0.1c-1.5-1-4.3-1.9-4.8-2.1H6.5C4.9,1.7,2.2,3.3,1.4,3.8L1.2,7c0.3,0,0.6,0.3,0.6,0.6c0,0.3-0.3,0.6-0.6,0.6H0.6
		C0.4,8.1,0.3,8,0.2,7.9C0,7.8,0,7.7,0,7.5l0.3-4.1c0-0.2,0.1-0.3,0.3-0.4C0.7,2.9,4.2,0.6,6.3,0c0.1,0,0.1,0,0.2,0h6
		c0.1,0,0.1,0,0.2,0c0.1,0,3.2,1.1,5.1,2.2c0.7,0.1,4.1,0.8,5.1,3.1c0,0,0,0.1,0,0.1l0.2,2c0,0.2,0,0.3-0.1,0.5
		C22.8,8,22.6,8.1,22.4,8.1z"/>
</g>
<g>
	<path fill="#000000" d="M16.2,8.1H6.4c-0.3,0-0.6-0.3-0.6-0.6S6.1,7,6.4,7h9.9c0.3,0,0.6,0.3,0.6,0.6S16.6,8.1,16.2,8.1z"/>
</g>
</svg>
